<svg width="502" height="494" viewBox="0 0 502 494" fill="none" xmlns="http://www.w3.org/2000/svg">
<circle cx="231.5" cy="271.5" r="84" stroke="#0066FF" stroke-opacity="0.41" stroke-dasharray="4 6"/>
<circle cx="226.5" cy="288.5" r="160" stroke="#0066FF" stroke-opacity="0.41" stroke-dasharray="4 6"/>
<circle cx="245.5" cy="256.5" r="232" stroke="#0066FF" stroke-opacity="0.41" stroke-dasharray="4 6"/>
<path d="M308 5H274L277 39L291 43L305 39L308 5Z" fill="#E65100"/>
<path d="M291 8V39.9L302.2 36.7L304.7 8H291Z" fill="#FF6D00"/>
<path d="M291 25V21H299.6L298.9 32.5L291 35.1V30.9L295.1 29.5L295.4 25H291ZM299.9 17L300.2 13H291V17H299.9Z" fill="white"/>
<path d="M291 30.9V35.1L283.1 32.5L282.7 27H286.7L286.9 29.5L291 30.9ZM286.1 17H291V13H281.9L282.6 25H291V21H286.4L286.1 17Z" fill="#EEEEEE"/>
<path d="M414 108C401.1 108 391 103.6 391 98C391 92.4 401.1 88 414 88C426.9 88 437 92.4 437 98C437 103.6 426.9 108 414 108ZM414 90C401.4 90 393 94.1 393 98C393 101.9 401.4 106 414 106C426.6 106 435 101.9 435 98C435 94.1 426.6 90 414 90Z" fill="#80DEEA"/>
<path d="M405.1 118.6C404.1 118.6 403.3 118.4 402.5 117.9C397.6 115.1 398.9 104.2 405.3 93C408.3 87.8 412 83.4 415.6 80.6C419.5 77.6 423 76.7 425.4 78.1C427.9 79.5 428.8 83 428.2 87.9C427.6 92.5 425.6 97.9 422.6 103.1C419.6 108.3 415.9 112.7 412.3 115.5C409.7 117.5 407.2 118.6 405.1 118.6ZM422.9 79.4C421.3 79.4 419.2 80.3 416.9 82.1C413.5 84.8 410 89 407.1 94C400.8 104.9 400.2 114.3 403.5 116.2C405.2 117.2 408 116.3 411.1 113.9C414.5 111.2 418 107 420.9 102C423.8 97 425.7 91.9 426.3 87.6C426.8 83.6 426.2 80.8 424.5 79.8C424 79.6 423.5 79.4 422.9 79.4Z" fill="#80DEEA"/>
<path d="M423 118.6C418 118.6 410.8 112.5 405.4 103C398.9 91.8 397.6 80.9 402.5 78.1C407.4 75.3 416.2 81.8 422.7 93C425.7 98.2 427.7 103.6 428.3 108.2C429 113.1 428 116.5 425.5 118C424.7 118.4 423.9 118.6 423 118.6ZM403.5 79.8C400.2 81.7 400.8 91.1 407.1 102C413.4 112.9 421.2 118.1 424.5 116.2C426.2 115.2 426.8 112.4 426.3 108.4C425.7 104.1 423.8 99 420.9 94C414.6 83.1 406.8 77.9 403.5 79.8Z" fill="#80DEEA"/>
<path d="M414 102C416.209 102 418 100.209 418 98C418 95.7909 416.209 94 414 94C411.791 94 410 95.7909 410 98C410 100.209 411.791 102 414 102Z" fill="#80DEEA"/>
<path d="M285 169V133H321V169H285Z" fill="#FFD600"/>
<path d="M308.538 159.947C309.23 161.071 309.982 162.148 311.575 162.148C312.913 162.148 313.615 161.483 313.615 160.563C313.615 159.462 312.889 159.071 311.417 158.43L310.61 158.086C308.281 157.098 306.732 155.86 306.732 153.245C306.732 150.835 308.577 149.001 311.46 149.001C313.513 149.001 314.988 149.712 316.052 151.574L313.538 153.181C312.985 152.193 312.387 151.804 311.46 151.804C310.514 151.804 309.915 152.401 309.915 153.181C309.915 154.145 310.515 154.535 311.9 155.132L312.707 155.476C315.452 156.645 317 157.839 317 160.523C317 163.415 314.716 165 311.65 165C308.651 165 306.948 163.495 306 161.632L308.538 159.947ZM296.952 160.029C297.458 160.935 298.227 161.632 299.333 161.632C300.391 161.632 301 161.214 301 159.589V149H304.333V160.101C304.333 163.468 302.38 165 299.528 165C296.951 165 295.091 163.254 294.333 161.632L296.952 160.029Z" fill="#000001"/>
<path d="M197.933 110L177 117.285L180.308 144.408L197.955 154L215.693 144.278L219 117.156L197.933 110Z" fill="#BDBDBD"/>
<path d="M216.818 118.527L198 112.135V151.695L213.832 143.017L216.818 118.527Z" fill="#B71C1C"/>
<path d="M197.941 112.115L179.181 118.644L182.168 143.143L197.951 151.721L198 151.695V112.135L197.941 112.115Z" fill="#DD2C00"/>
<path d="M198 113.996V123.504L206.578 142H210.987L198 113.996Z" fill="#BDBDBD"/>
<path d="M185.013 142H189.422L198 123.504V113.996L185.013 142Z" fill="#EEEEEE"/>
<path d="M198 132H204V136H198V132Z" fill="#BDBDBD"/>
<path d="M192 132H198V136H192V132Z" fill="#EEEEEE"/>
<path d="M435.204 382.122L430.297 384.837C430.113 384.938 430 385.126 430 385.329V390.762C430 390.965 430.113 391.152 430.297 391.254L435.205 393.971C435.388 394.072 435.615 394.072 435.798 393.971L440.705 391.254C440.887 391.152 441 390.965 441 390.762V385.329C441 385.126 440.887 384.939 440.703 384.837L435.797 382.122C435.705 382.071 435.602 382.046 435.5 382.046C435.397 382.046 435.295 382.071 435.203 382.122H435.204ZM460.451 387.013L459.633 387.465C459.602 387.482 459.584 387.513 459.584 387.547V388.453C459.584 388.487 459.603 388.518 459.633 388.535L460.451 388.988C460.482 389.005 460.519 389.005 460.55 388.988L461.368 388.535C461.398 388.518 461.417 388.487 461.417 388.453V387.547C461.417 387.513 461.398 387.482 461.367 387.465L460.549 387.013C460.534 387.004 460.517 387 460.5 387C460.483 387 460.466 387.004 460.451 387.013Z" fill="#388E3C"/>
<path d="M453.751 376.364L451.362 375.031C451.287 374.989 451.195 374.99 451.121 375.034C451.047 375.078 451.001 375.157 451.001 375.243L451 383.295L448.797 382.076C448.705 382.025 448.602 382 448.5 382C448.398 382 448.295 382.025 448.203 382.076H448.204L443.297 384.791C443.113 384.892 443 385.08 443 385.282V390.715C443 390.918 443.113 391.105 443.297 391.207L448.205 393.924C448.388 394.025 448.615 394.025 448.798 393.924L453.705 391.207C453.887 391.106 454 390.918 454 390.715V376.788C454 376.612 453.904 376.45 453.751 376.364ZM450.866 389.458L448.636 390.693C448.553 390.739 448.45 390.739 448.367 390.693L446.136 389.458C446.051 389.412 446 389.326 446 389.234V386.764C446 386.672 446.051 386.587 446.135 386.54L448.366 385.306H448.365C448.407 385.283 448.453 385.272 448.5 385.272C448.547 385.272 448.593 385.284 448.635 385.306L450.865 386.54C450.949 386.587 451 386.673 451 386.765V389.235C451 389.326 450.949 389.412 450.866 389.458Z" fill="#37474F"/>
<path d="M435.204 382.122L430 390.762C430 390.965 430.113 391.152 430.297 391.254L435.205 393.971C435.388 394.072 435.615 394.072 435.798 393.971L441 385.329C441 385.126 440.887 384.939 440.703 384.837L435.797 382.122C435.705 382.071 435.602 382.046 435.5 382.046C435.397 382.046 435.295 382.071 435.203 382.122" fill="#2E7D32"/>
<path d="M435.204 382.122L430.297 384.837C430.113 384.938 430 385.126 430 385.329L435.204 393.971C435.387 394.072 435.614 394.072 435.797 393.971L440.704 391.254C440.887 391.152 441 390.965 441 390.762L435.797 382.122C435.705 382.071 435.602 382.046 435.5 382.046C435.397 382.046 435.295 382.071 435.203 382.122" fill="#4CAF50"/>
<path d="M465.703 384.791L460.797 382.076C460.705 382.025 460.602 382 460.5 382C460.398 382 460.295 382.025 460.203 382.076H460.204L455.297 384.791C455.114 384.892 455 385.084 455 385.294V390.705C455 390.914 455.114 391.107 455.297 391.208L460.205 393.925C460.389 394.027 460.614 394.027 460.798 393.925L463.061 392.672C463.268 392.557 463.267 392.26 463.059 392.146L458.135 389.459C458.052 389.412 458 389.325 458 389.231V386.765C458 386.673 458.05 386.588 458.13 386.544L460.365 385.308H460.364C460.406 385.285 460.452 385.274 460.499 385.274C460.546 385.274 460.592 385.286 460.634 385.308L462.869 386.545C462.949 386.589 462.999 386.674 462.999 386.766V388.778C462.999 388.864 463.045 388.944 463.12 388.987C463.195 389.029 463.287 389.029 463.362 388.986L465.76 387.593C465.908 387.507 466 387.348 466 387.176V385.296C466 385.085 465.886 384.892 465.703 384.791ZM428.703 384.791L423.797 382.076C423.705 382.025 423.602 382 423.5 382C423.398 382 423.295 382.025 423.203 382.076H423.204L418.297 384.791C418.114 384.892 418 385.084 418 385.294V392.759C418 392.845 418.046 392.925 418.121 392.968C418.196 393.01 418.288 393.01 418.363 392.967L420.761 391.574C420.909 391.488 421 391.329 421 391.157V386.764C421 386.672 421.05 386.587 421.13 386.543L423.365 385.307C423.407 385.284 423.453 385.273 423.5 385.273C423.547 385.273 423.593 385.285 423.635 385.307L425.87 386.544C425.95 386.588 426 386.673 426 386.765V391.158C426 391.33 426.091 391.489 426.24 391.575L428.638 392.968C428.713 393.011 428.805 393.011 428.88 392.969C428.954 392.925 429 392.845 429 392.759V385.295C429 385.085 428.886 384.892 428.703 384.791Z" fill="#37474F"/>
<path d="M321 249C321 251.762 318.762 254 316 254H290C287.238 254 285 251.762 285 249V223C285 220.238 287.238 218 290 218H316C318.762 218 321 220.238 321 223V249Z" fill="#00BCD4"/>
<path d="M293 237.483V241H291.007V231H294.767C295.751 231 296.537 231.307 297.122 231.92C297.707 232.533 298 233.33 298 234.311C298 235.292 297.711 236.064 297.132 236.632C296.553 237.2 295.751 237.484 294.726 237.484H293V237.483ZM293.017 235.801H294.767C295.15 235.801 295.446 235.676 295.656 235.423C295.866 235.171 295.97 234.805 295.97 234.324C295.97 233.825 295.863 233.428 295.649 233.132C295.435 232.838 295.148 232.688 294.788 232.683H293.017V235.801ZM310 237.483V241H308.007V231H311.767C312.751 231 313.537 231.307 314.122 231.92C314.707 232.533 315 233.33 315 234.311C315 235.292 314.711 236.064 314.132 236.632C313.553 237.2 312.751 237.484 311.726 237.484H310V237.483ZM310.017 235.801H311.767C312.15 235.801 312.446 235.676 312.656 235.423C312.866 235.171 312.97 234.805 312.97 234.324C312.97 233.825 312.863 233.428 312.649 233.132C312.435 232.838 312.148 232.688 311.788 232.683H310.017V235.801ZM306 241H304V236.721H300.98V241H299V231H300.98V235H304V231H306V241Z" fill="white"/>
<path fill-rule="evenodd" clip-rule="evenodd" d="M476.903 212.286C477.582 211.905 478.418 211.905 479.096 212.286C482.451 214.169 492.547 219.837 495.903 221.72C496.582 222.1 497 222.804 497 223.566C497 227.332 497 238.667 497 242.433C497 243.195 496.582 243.899 495.903 244.28C492.548 246.163 482.452 251.831 479.096 253.714C478.417 254.095 477.581 254.095 476.903 253.714C473.548 251.831 463.452 246.163 460.096 244.28C459.418 243.899 459 243.196 459 242.434C459 238.668 459 227.333 459 223.567C459 222.805 459.418 222.101 460.097 221.72C463.451 219.837 473.549 214.169 476.903 212.286Z" fill="#00549D"/>
<path fill-rule="evenodd" clip-rule="evenodd" d="M459.304 243.404C459.038 243.048 459 242.71 459 242.255C459 238.511 459 227.241 459 223.496C459 222.738 459.417 222.038 460.094 221.66C463.437 219.788 473.499 214.153 476.842 212.28C477.519 211.901 478.436 211.909 479.113 212.288C482.456 214.16 492.484 219.747 495.827 221.619C496.097 221.771 496.303 221.954 496.487 222.195L459.304 243.404Z" fill="#0086D4"/>
<path fill-rule="evenodd" clip-rule="evenodd" d="M478 219C485.727 219 492 225.273 492 233C492 240.727 485.727 247 478 247C470.273 247 464 240.727 464 233C464 225.273 470.273 219 478 219ZM478 226C481.863 226 485 229.136 485 233C485 236.863 481.863 240 478 240C474.137 240 471 236.863 471 233C471 229.136 474.136 226 478 226Z" fill="white"/>
<path fill-rule="evenodd" clip-rule="evenodd" d="M496.485 222.205C497.001 222.688 496.991 223.416 496.991 223.989C496.991 227.784 496.959 238.578 497 242.373C497.004 242.769 496.873 243.186 496.677 243.5L477.593 233L496.485 222.205Z" fill="#0075C0"/>
<path fill-rule="evenodd" clip-rule="evenodd" d="M485 230H487V236H485V230ZM492 230H494V236H492V230Z" fill="white"/>
<path fill-rule="evenodd" clip-rule="evenodd" d="M483 232H489V234H483V232ZM490 232H496V234H490V232Z" fill="white"/>
<path d="M366.047 356C364.492 356.005 363.414 356.142 362.111 356.367C358.263 357.037 357.562 358.444 357.562 361.037V365H366.562V367H357.22H352.87C350.234 367 347.927 368.242 347.196 371.219C346.37 374.636 346.333 376.776 347.196 380.344C347.851 383.005 349.294 385 351.931 385H355.563V379.896C355.563 376.93 358.249 374 361.327 374H368.563C371.086 374 373.563 372.138 373.563 369.623V361.037C373.563 358.598 371.804 356.774 369.345 356.365C369.406 356.359 367.589 355.994 366.047 356ZM361.063 360C361.884 360 362.563 360.677 362.563 361.502C362.563 362.335 361.884 363 361.063 363C360.226 363 359.563 362.336 359.563 361.502C359.563 360.68 360.226 360 361.063 360Z" fill="#0277BD"/>
<path d="M365.078 394C366.633 393.995 367.711 393.858 369.014 393.633C372.862 392.963 373.563 391.556 373.563 388.963V385H364.563V383H373.906H378.256C380.892 383 383.199 381.758 383.93 378.781C384.756 375.364 384.793 373.224 383.93 369.656C383.274 366.995 381.831 365 379.194 365H375.562V370.104C375.562 373.07 372.876 376 369.798 376H362.562C360.039 376 357.562 377.862 357.562 380.377V388.963C357.562 391.402 359.321 393.226 361.78 393.635C361.719 393.641 363.536 394.006 365.078 394ZM370.063 390C369.242 390 368.563 389.323 368.563 388.498C368.563 387.665 369.242 387 370.063 387C370.9 387 371.563 387.664 371.563 388.498C371.563 389.32 370.899 390 370.063 390Z" fill="#FFC107"/>
<path d="M375.1 240.2L375.2 242.5L373.6 245.5L371.1 250.4L370.6 254.5L372.4 260.3L376.5 262.6H382.7L388.5 258.2L391.1 251.3L385.1 244L383.4 239.9L375.1 240.2Z" fill="#ECEFF1"/>
<path d="M389.3 245.9C387.7 243.6 386.4 242.2 385.7 239.3C385 236.4 385.9 237.2 385.3 234.7C385 233.4 384.5 232.5 384 231.8C383.4 231.1 382.7 230.7 382.3 230.6C381.4 230.1 379.3 229.3 376.7 230.7C374 232.1 374.3 235.1 374.8 241.2C374.8 241.6 374.7 242.1 374.5 242.5C374.1 243.4 373.4 244.2 372.8 244.9C372.1 245.9 371.4 246.9 370.9 248C369.7 250.3 368.6 253.2 368.9 254.3C369.4 254.2 375.7 263.8 375.7 264C376.1 263.9 377.8 263.9 379.3 263.9C381.4 263.8 382.6 263.7 384.3 264.1C384.3 263.8 384.2 263.5 384.2 263.2C384.2 262.6 384.3 262.1 384.4 261.4C384.5 260.9 384.6 260.4 384.7 259.8C383.7 260.7 381.9 261.7 380.2 262C378.7 262.3 376.2 261.8 375 260.3C375.1 260.3 375.3 260.3 375.4 260.2C375.7 260.1 376 260 376.1 259.8C376.4 259.3 376.2 258.8 376 258.5C375.8 258.2 374.3 257.1 373.6 256.5C372.9 255.9 372.5 255.6 372.1 255.2C372.1 255.2 371.5 254.6 371.3 254.4C371.1 254.2 371 254 370.9 253.9C370.7 253.4 370.6 252.8 370.7 252C370.8 250.9 371.2 250 371.7 249C371.9 248.6 372.4 247.8 372.4 247.8C372.4 247.8 370.7 252 371.6 253.3C371.6 253.3 371.7 252 372.1 250.7C372.4 249.8 372.9 248.5 373.5 247.8C374.1 247.1 375.6 244.5 375.7 242.9C375.7 242.2 375.8 241.5 375.8 241C375.4 240.6 382.4 239.6 382.8 240.7C382.9 241.1 384.3 244.7 385.1 246.6C385.5 247.5 386 248.3 386.3 249.3C386.6 250.4 386.8 251.9 386.8 253.4C386.8 253.7 386.8 254.2 386.7 254.7C386.9 254.7 390.8 250.5 386.2 247C386.2 247 389 248.3 389.1 250.9C389.2 253 388.3 254.7 388.1 255C388.2 255 390.2 255.9 390.3 255.9C390.7 255.9 391.5 255.6 391.5 255.6C391.6 255.3 391.9 254.5 391.9 254.2C392.6 251.9 390.9 248.2 389.3 245.9Z" fill="#263238"/>
<path d="M376.6 235.3C376.255 235.3 375.925 235.511 375.681 235.886C375.437 236.261 375.3 236.77 375.3 237.3C375.3 237.83 375.437 238.339 375.681 238.714C375.925 239.089 376.255 239.3 376.6 239.3C376.945 239.3 377.275 239.089 377.519 238.714C377.763 238.339 377.9 237.83 377.9 237.3C377.9 236.77 377.763 236.261 377.519 235.886C377.275 235.511 376.945 235.3 376.6 235.3ZM381.1 234.9C380.649 234.9 380.217 235.142 379.898 235.574C379.579 236.005 379.4 236.59 379.4 237.2C379.4 237.81 379.579 238.395 379.898 238.826C380.217 239.258 380.649 239.5 381.1 239.5C381.551 239.5 381.983 239.258 382.302 238.826C382.621 238.395 382.8 237.81 382.8 237.2C382.8 236.59 382.621 236.005 382.302 235.574C381.983 235.142 381.551 234.9 381.1 234.9Z" fill="#ECEFF1"/>
<path d="M375.938 237.612C375.958 237.769 375.995 237.921 376.048 238.061C376.102 238.201 376.169 238.326 376.248 238.428C376.326 238.531 376.414 238.609 376.506 238.658C376.598 238.707 376.692 238.727 376.783 238.715C376.874 238.703 376.961 238.661 377.037 238.591C377.114 238.52 377.179 238.423 377.23 238.304C377.28 238.186 377.315 238.048 377.332 237.899C377.348 237.75 377.347 237.593 377.327 237.437C377.307 237.28 377.27 237.128 377.217 236.988C377.163 236.848 377.096 236.723 377.017 236.621C376.939 236.518 376.851 236.44 376.759 236.391C376.667 236.342 376.573 236.322 376.482 236.334C376.391 236.345 376.304 236.388 376.228 236.458C376.151 236.529 376.086 236.626 376.035 236.745C375.985 236.863 375.95 237.001 375.933 237.15C375.917 237.299 375.918 237.456 375.938 237.612Z" fill="#212121"/>
<path d="M381 236.3C380.735 236.3 380.48 236.437 380.293 236.681C380.105 236.925 380 237.255 380 237.6C380 237.945 380.105 238.275 380.293 238.519C380.48 238.763 380.735 238.9 381 238.9C381.265 238.9 381.52 238.763 381.707 238.519C381.895 238.275 382 237.945 382 237.6C382 237.255 381.895 236.925 381.707 236.681C381.52 236.437 381.265 236.3 381 236.3Z" fill="#212121"/>
<path d="M394.3 259.6C393.9 259.4 393.2 259.1 392.6 258.2C392.3 257.7 392.4 256.3 391.9 255.7C391.6 255.3 391.2 255.5 391.1 255.5C390.2 255.7 388.1 257.1 386.7 255.5C386.5 255.3 386.2 255 385.7 255C385.2 255 385 255.2 384.8 255.6C384.6 256 384.6 256.3 384.6 257.3C384.6 258.1 384.6 259 384.5 259.7C384.3 261.4 384 262.4 384 263.4C384 264.5 384.3 265.2 384.7 265.5C385 265.8 385.5 266 386.6 266C387.7 266 388.4 265.6 389.1 264.9C389.6 264.4 390 264.2 391.4 263.2C392.5 262.5 394.2 261.6 394.5 261.3C394.7 261.1 395 261 395 260.4C395 259.9 394.6 259.7 394.3 259.6ZM374.2 259.9C373.2 258.3 373.1 258 372.4 257C371.8 256 370.5 254.1 369.7 254.1C369.1 254.1 368.8 254.4 368.4 254.8C368 255.2 367.6 256.1 366.9 256.6C366.3 257.1 364.6 257 364.2 257.6C363.8 258.2 364.6 259.1 364.6 260.6C364.6 261.2 364.1 261.6 364 262C363.9 262.5 363.8 262.8 364 263.2C364.4 263.8 364.9 264 368.3 264.7C370.1 265.1 371.8 266.1 372.9 266.2C374 266.3 375.9 266.2 375.9 263.5C376 261.9 375.1 261.5 374.2 259.9ZM376.1 241.8C375.5 241.4 375 241 375 240.4C375 239.8 375.4 239.6 376 239.1C376.1 239 377.2 238 378.3 238C379.4 238 380.7 238.7 381.2 238.9C382.1 239.1 383 239.3 382.9 240C382.8 241 382.7 241.2 381.7 241.7C381 241.9 379.7 243 378.8 243C378.4 243 377.8 243 377.4 242.9C377.1 242.8 376.6 242.3 376.1 241.8Z" fill="#FFC107"/>
<path d="M375.9 241C376.1 241.2 376.4 241.4 376.7 241.5C376.9 241.6 377.2 241.7 377.2 241.7C377.6 241.7 377.9 241.7 378.1 241.7C378.6 241.7 379.3 241.5 380 241.1C380.7 240.8 380.8 240.6 381.3 240.4C381.8 240.1 382.3 239.8 382.1 239.7C381.9 239.6 381.7 239.7 381 240.1C380.4 240.5 379.9 240.7 379.3 241C379 241.1 378.6 241.3 378.3 241.3C378 241.3 377.7 241.3 377.4 241.3C377.1 241.3 376.9 241.2 376.6 241.1C376.4 241 376.3 240.9 376.2 240.9C376 240.8 375.6 240.4 375.4 240.3C375.4 240.3 375.2 240.3 375.3 240.4C375.6 240.7 375.7 240.8 375.9 241ZM378.9 238.8C379 239 379.2 239 379.3 239.1C379.4 239.2 379.5 239.2 379.5 239.2C379.6 239.1 379.5 238.9 379.4 238.9C379.4 238.7 378.9 238.7 378.9 238.8ZM377.3 239C377.3 239.1 377.5 239.2 377.5 239.1C377.6 239 377.7 238.9 377.8 238.9C378 238.8 377.9 238.7 377.6 238.7C377.4 238.8 377.4 238.9 377.3 239Z" fill="#634703"/>
<path d="M387 256.7C387 256.8 387 256.9 387 257C387.2 257.4 387.7 257.5 388.1 257.5C388.7 257.5 389.3 257.1 389.6 256.7C389.6 256.6 389.7 256.5 389.8 256.4C390 256.1 390.1 255.9 390.2 255.8C390.2 255.8 390.1 255.7 390.1 255.6C390 255.4 389.7 255.2 389.3 255.1C389 255 388.5 254.9 388.3 254.9C387.4 254.8 386.9 255.1 386.6 255.4C386.6 255.4 386.7 255.4 386.7 255.5C386.9 255.7 387 255.9 387 256.2C387.1 256.4 387 256.5 387 256.7Z" fill="#455A64"/>
<path d="M116 39C116 36.791 117.791 35 120 35H148C150.209 35 152 36.791 152 39V67C152 69.208 150.209 71 148 71H120C117.791 71 116 69.208 116 67V39Z" fill="#FF6D00"/>
<path d="M116 39V50.967L120 54.967C120 54.967 131.153 67.848 140 59C148.847 50.152 136.019 40 136.019 40L131.014 35H120C117.791 35 116 36.79 116 39Z" fill="#E64A19"/>
<path d="M136.019 40C147.448 47.698 143.751 56.187 143.751 56.187C143.751 56.187 147.001 59.821 145.687 63C145.687 63 144.347 60.774 142.099 60.774C139.933 60.774 138.659 63 134.299 63C124.591 63 120 54.967 120 54.967C128.747 60.667 134.719 56.63 134.719 56.63C130.778 54.364 122 43 122 43C129.299 49.155 133 51 133 51C131.118 49.458 125 42 125 42C129.224 46.238 138.307 52.378 138.307 52.378C140.691 45.834 136.019 40 136.019 40Z" fill="white"/>
<path d="M156 319C156 316.791 157.791 315 160 315H188C190.209 315 192 316.791 192 319V347C192 349.209 190.209 351 188 351H160C157.791 351 156 349.209 156 347V319Z" fill="#03A9F4"/>
<path d="M170.016 328.174H168.014V332.608H169.987C170.534 332.608 170.957 332.429 171.257 332.071C171.557 331.713 171.706 331.192 171.706 330.508C171.706 329.798 171.553 329.234 171.247 328.814C170.941 328.394 170.53 328.181 170.016 328.174Z" fill="#020F16"/>
<path d="M159 318V348H189V318H159ZM173.365 333.789C172.539 334.597 171.393 335 169.928 335H168.014V340H165.143V325.781H169.987C171.393 325.781 172.515 326.218 173.351 327.09C174.187 327.962 174.606 329.095 174.606 330.488C174.606 331.881 174.192 332.981 173.365 333.789ZM182.682 339.336C181.973 339.909 181.041 340.195 179.889 340.195C179.114 340.195 178.43 340.044 177.838 339.741C177.246 339.438 176.781 339.016 176.446 338.476C176.111 337.936 175.943 337.353 175.943 336.728H178.57C178.584 337.209 178.695 337.571 178.907 337.812C179.119 338.053 179.465 338.173 179.947 338.173C180.689 338.173 181.06 337.838 181.06 337.167C181.06 336.933 180.948 336.716 180.723 336.518C180.498 336.32 180 336.052 179.225 335.713C178.086 335.251 177.303 334.773 176.876 334.277C176.449 333.781 176.236 333.167 176.236 332.431C176.236 331.506 176.57 330.743 177.237 330.141C177.904 329.539 178.789 329.238 179.888 329.238C181.046 329.238 181.974 329.538 182.671 330.136C183.368 330.734 183.716 331.539 183.716 332.548H180.952C180.952 331.689 180.595 331.259 179.878 331.259C179.585 331.259 179.345 331.35 179.155 331.532C178.965 331.714 178.872 331.969 178.872 332.294C178.872 332.528 178.976 332.735 179.185 332.914C179.394 333.093 179.884 333.349 180.66 333.681C181.787 334.098 182.582 334.562 183.048 335.073C183.514 335.584 183.746 336.247 183.746 337.06C183.746 338.005 183.391 338.763 182.682 339.336Z" fill="#020F16"/>
<path d="M6 325C6 322.791 7.791 321 10 321H38C40.209 321 42 322.791 42 325V353C42 355.209 40.209 357 38 357H10C7.791 357 6 355.209 6 353V325Z" fill="#FF5722"/>
<path d="M9 324V354H39V324H9ZM23.691 346L22.929 343.09H19.013L18.252 346H15.215L19.658 331.781H22.285L26.758 346H23.691ZM30.85 346H28.077V335.434H30.85V346ZM30.552 333.754C30.281 334.034 29.916 334.174 29.453 334.174C28.99 334.174 28.625 334.034 28.354 333.754C28.083 333.474 27.949 333.122 27.949 332.699C27.949 332.269 28.086 331.918 28.359 331.644C28.632 331.37 28.998 331.234 29.453 331.234C29.908 331.234 30.273 331.371 30.547 331.644C30.821 331.917 30.957 332.269 30.957 332.699C30.957 333.122 30.822 333.474 30.552 333.754Z" fill="#1C0802"/>
<path d="M19.639 340.697H22.295L20.967 335.629L19.639 340.697Z" fill="#1C0802"/>
<path d="M98 380C98 377.791 99.791 376 102 376H130C132.209 376 134 377.791 134 380V408C134 410.209 132.209 412 130 412H102C99.791 412 98 410.209 98 408V380Z" fill="#B388FF"/>
<path d="M101 379V409H131V379H101Z" fill="#170B40"/>
<path d="M113.183 397.965H108.628L107.762 400.811H105L109.694 387H112.101L116.82 400.81H114.058L113.183 397.965ZM109.33 395.66H112.482L110.898 390.49L109.33 395.66ZM122.146 401C121.418 401 120.767 400.87 120.193 400.611C119.618 400.352 119.131 399.997 118.729 399.548C118.327 399.099 118.022 398.573 117.811 397.969C117.601 397.365 117.495 396.719 117.495 396.029V395.659C117.495 394.881 117.598 394.168 117.803 393.52C118.007 392.872 118.299 392.314 118.678 391.846C119.055 391.378 119.515 391.013 120.054 390.75C120.594 390.488 121.199 390.356 121.868 390.356C122.543 390.356 123.138 390.478 123.652 390.721C124.166 390.964 124.597 391.306 124.947 391.746C125.296 392.185 125.559 392.715 125.735 393.335C125.911 393.955 126 394.645 126 395.404V396.571H120.034C120.074 396.906 120.157 397.21 120.281 397.481C120.405 397.753 120.564 397.985 120.757 398.178C120.95 398.371 121.177 398.521 121.436 398.629C121.696 398.737 121.988 398.79 122.311 398.79C122.767 398.79 123.189 398.697 123.575 398.51C123.962 398.324 124.294 398.034 124.571 397.642L125.801 399.15C125.651 399.384 125.463 399.612 125.238 399.833C125.013 400.054 124.747 400.252 124.441 400.426C124.135 400.6 123.791 400.739 123.406 400.843C123.022 400.948 122.603 401 122.146 401ZM121.861 392.577C121.589 392.577 121.352 392.629 121.146 392.734C120.941 392.838 120.765 392.984 120.618 393.17C120.471 393.356 120.351 393.579 120.259 393.839C120.167 394.098 120.101 394.386 120.061 394.702H123.542V394.484C123.536 394.212 123.5 393.959 123.433 393.725C123.367 393.491 123.266 393.289 123.13 393.118C122.994 392.947 122.821 392.815 122.611 392.72C122.398 392.625 122.149 392.577 121.861 392.577Z" fill="#B388FF"/>
<path d="M221 442H213C209.134 442 206 438.866 206 435C206 431.134 209.134 428 213 428H221V442Z" fill="#E64A19"/>
<path d="M220 456H213C209.134 456 206 452.866 206 449C206 445.134 209.134 442 213 442H220V456Z" fill="#7C4DFF"/>
<path d="M213 470C209.134 470 206 466.866 206 463C206 459.134 209.134 456 213 456H220V463C220 466.866 216.866 470 213 470Z" fill="#66BB6A"/>
<path d="M227 442H220V428H227C230.866 428 234 431.134 234 435C234 438.866 230.866 442 227 442Z" fill="#FF7043"/>
<path d="M227 456C230.866 456 234 452.866 234 449C234 445.134 230.866 442 227 442C223.134 442 220 445.134 220 449C220 452.866 223.134 456 227 456Z" fill="#29B6F6"/>
<path d="M157 246C168.046 246 177 237.046 177 226C177 214.954 168.046 206 157 206C145.954 206 137 214.954 137 226C137 237.046 145.954 246 157 246Z" fill="#FF8A65"/>
<path d="M162 234C160.896 234 160 233.104 160 232V219C160 217.896 160.896 217 162 217C163.104 217 164 217.896 164 219V232C164 233.104 163.104 234 162 234Z" fill="white"/>
<path d="M156 234C154.896 234 154 233.104 154 232V226C154 224.896 154.896 224 156 224C157.104 224 158 224.896 158 226V232C158 233.104 157.104 234 156 234Z" fill="white"/>
<path d="M150 234C148.896 234 148 233.104 148 232V231C148 229.896 148.896 229 150 229C151.104 229 152 229.896 152 231V232C152 233.104 151.104 234 150 234Z" fill="white"/>
<path d="M60 165C60 167.762 57.762 170 55 170H29C26.239 170 24 167.762 24 165V139C24 136.238 26.239 134 29 134H55C57.762 134 60 136.238 60 139V165Z" fill="#3F51B5"/>
<path d="M52.368 153H49V166H44V153H41V149H44V146.59C44.002 143.082 45.459 141 49.592 141H53V145H50.713C49.104 145 49 145.6 49 146.723V149H53L52.368 153Z" fill="white"/>
<path d="M89.67 235.48C89.27 235.74 88.7 235.98 88.46 236.25C88.37 236.34 88.32 236.44 88.34 236.54V237.57L88.04 238.58L87.74 239.58L87.41 240.68L86.73 242.93L86.07 245.15L85.57 246.82C85.57 247.08 85.56 247.34 85.54 247.59C85.47 248.55 85.27 249.47 84.95 250.33C84.76 250.86 84.53 251.37 84.25 251.85C84.15 252.04 84.03 252.23 83.91 252.41C83.51 253.04 83.03 253.62 82.5 254.13C82.09 254.54 81.64 254.92 81.15 255.24C81.15 255.24 81.15 255.24 81.14 255.24C81.06 255.31 80.97 255.37 80.87 255.42C80.56 255.63 80.23 255.81 79.89 255.97C79.66 256.09 79.43 256.19 79.19 256.28C79.14 256.31 79.08 256.33 79.03 256.35C78.46 256.62 77.8 256.8 77.14 256.89C77.1 256.9 77.07 256.9 77.03 256.91C76.63 256.98 76.24 257.04 75.84 257.07C75.66 257.09 75.47 257.1 75.29 257.1L74.58 257.06L71.16 256.88C71.16 256.87 71.15 256.88 71.15 256.88L69.43 256.79C69.3 256.79 69.16 256.79 69.03 256.78C68.49 256.76 67.97 256.7 67.45 256.59C67.44 256.59 67.44 256.59 67.44 256.59C66.49 256.41 65.58 256.09 64.73 255.66C64.26 255.42 63.8 255.15 63.37 254.84C63.19 254.71 63.02 254.57 62.85 254.42C62.37 254.02 61.94 253.59 61.54 253.15C61.48 253.09 61.43 253.03 61.38 252.97C61.32 252.91 61.26 252.84 61.21 252.78C60.83 252.3 60.51 251.81 60.25 251.29C60.01 250.83 59.82 250.34 59.67 249.8C59.61 249.61 59.56 249.43 59.52 249.23C59.51 249.22 59.5 249.2 59.5 249.18C59.4 248.77 59.31 248.34 59.26 247.91C59.2 247.58 59.17 247.25 59.17 246.91C59.15 246.78 59.15 246.64 59.15 246.51L61.06 243.56L62.93 240.68L63.78 239.37L64.55 238.19L64.81 237.78V236.75C64.83 236.52 64.84 236.28 64.83 236.06C64.82 235.36 64.68 234.68 64.45 234.03C64.23 233.34 63.92 232.69 63.6 232.09C63.22 231.4 62.82 230.78 62.49 230.22C62 229.4 61.66 228.73 61.75 228.26C62.47 228.09 63.23 228 64 228H80C84.18 228 87.78 230.6 89.27 234.26C89.43 234.65 89.57 235.06 89.67 235.48Z" fill="#304FFE"/>
<path d="M90 238V238.27L88.62 239.07L87.74 239.58L86.77 240.14L84.83 241.27L82.93 242.37L80.99 243.49L80.22 243.94C80.22 244.42 80.1 244.86 79.88 245.26C79.57 245.84 79.05 246.32 78.39 246.73C77.72 247.14 76.9 247.47 75.98 247.71C75.98 247.71 75.98 247.7 75.97 247.71C72.41 248.63 67.55 248.21 65.19 246.45C64.53 245.96 64.07 245.36 63.87 244.67C63.81 244.44 63.78 244.19 63.78 243.94V236.75C63.79 236.6 63.69 236.45 63.51 236.3C62.97 235.87 61.7 235.46 60.28 235.05C59.17 234.74 57.98 234.43 56.98 234.13C56.19 233.89 55.52 233.65 55.12 233.42C55.3 233.07 55.51 232.72 55.73 232.39C57.13 230.34 59.27 228.83 61.75 228.26C62.47 228.09 63.23 228 64 228H74.8C80.17 228.94 85.12 231.13 89.27 234.26C89.43 234.65 89.57 235.06 89.67 235.48C89.85 236.14 89.96 236.82 89.99 237.53C90 237.68 90 237.84 90 238Z" fill="#4928F4"/>
<path d="M90 238V242.41L89.78 243.09L89.03 245.42L88.25 247.82L87.84 249.1L87.46 250.29L87.09 251.42L86.73 252.54L86.54 253.13L86.29 253.91C86.29 254.67 86.27 255.34 86.22 255.91C86.21 255.97 86.2 256.03 86.2 256.09C86.14 256.62 86.06 257.07 85.93 257.45C85.92 257.51 85.9 257.57 85.88 257.62C85.62 258.34 85.23 258.8 84.65 259.1C84.51 259.18 84.35 259.24 84.18 259.3C83.65 259.48 82.98 259.57 82.16 259.62C81.56 259.66 80.87 259.67 80.09 259.67H79.4L78.21 259.62L78 259.61L75.83 259.52L73.63 259.43L66.38 259.13L64.5 259.05H64.24C63.46 259.04 62.79 258.99 62.21 258.91C61.37 258.78 60.72 258.56 60.23 258.23C59.53 257.78 59.12 257.12 58.88 256.2C58.82 255.98 58.77 255.75 58.74 255.5C58.64 254.92 58.59 254.25 58.56 253.5C58.56 253.35 58.56 253.2 58.55 253.04C58.54 253.03 58.55 253.03 58.55 253.03V252.45C58.54 252.16 58.54 251.86 58.54 251.55L58.59 249.94L58.62 248.79L58.66 247.45V247.26L58.73 244.8L58.8 242.34L58.87 240.03L58.93 237.76L58.95 237.16C58.95 236.85 57.9 236.67 56.73 236.52C55.8 236.4 54.78 236.29 54.17 236.15C54.22 235.92 54.27 235.69 54.33 235.47C54.51 234.75 54.78 234.07 55.12 233.42C55.3 233.07 55.51 232.72 55.73 232.39C57.89 231.44 60.14 230.7 62.49 230.22C64.55 229.79 66.7 229.56 68.92 229.56C76.28 229.56 83.08 232.05 88.46 236.25C88.98 236.65 89.49 237.08 89.99 237.53C90 237.68 90 237.84 90 238Z" fill="#6200EA"/>
<path d="M90 240.37V244.91L89.45 245.97L88.4 248.02L87.84 249.1L87.33 250.09L87.11 250.52C87.11 250.83 87.11 251.13 87.09 251.42C87.09 251.85 87.07 252.26 87.04 252.64C87 253.09 86.94 253.5 86.88 253.88C86.73 254.67 86.52 255.35 86.22 255.91C86.18 255.98 86.14 256.05 86.1 256.11C85.99 256.29 85.86 256.46 85.72 256.62C85.54 256.84 85.34 257.03 85.11 257.19C84.77 257.45 84.37 257.66 83.91 257.82C83.34 258.03 82.68 258.17 81.9 258.25C81.39 258.3 80.83 258.33 80.22 258.33L79.8 258.35L77.72 258.47H77.71L75.5 258.6L73.25 258.73L70.15 258.91L66.38 259.13L65.83 259.16C65.32 259.16 64.84 259.13 64.38 259.07C64.33 259.06 64.29 259.05 64.24 259.05C63.56 258.94 62.94 258.76 62.38 258.51C61.7 258.21 61.11 257.81 60.61 257.33C60.17 256.9 59.79 256.41 59.48 255.86C59.41 255.73 59.34 255.61 59.28 255.47C58.98 254.88 58.74 254.22 58.56 253.5C58.53 253.38 58.5 253.25 58.48 253.12C58.42 252.89 58.37 252.65 58.34 252.4C58.23 251.76 58.17 251.08 58.14 250.37V250.36C58.13 250.07 58.12 249.79 58.12 249.49L57.63 248.32L57.56 248.14L57.5 247.99L56.75 246.2L56.63 245.91L55.91 244.18L55.11 242.25C55.11 242.25 55.11 242.25 55.1 242.25L54.29 240.3L54 239.59V238C54 237.37 54.06 236.75 54.17 236.15C54.22 235.92 54.27 235.69 54.33 235.47C55.18 234.98 56.07 234.53 56.98 234.13C59.06 233.2 61.29 232.51 63.6 232.09C65.32 231.78 67.11 231.61 68.92 231.61C76.23 231.61 82.86 234.26 88.04 238.58C88.24 238.74 88.43 238.9 88.62 239.07C89.09 239.48 89.55 239.91 90 240.37Z" fill="#673AB7"/>
<path d="M90 243.35V248.49L89.43 249.68L88.35 251.93L88.34 251.96C88.34 252.39 88.32 252.78 88.29 253.13C88.19 254.28 87.91 255.01 87.45 255.46C87.12 255.8 86.71 255.99 86.2 256.09C86.17 256.1 86.13 256.1 86.1 256.11C85.94 256.14 85.77 256.16 85.59 256.16C84.97 256.22 84.24 256.18 83.4 256.12C83.31 256.12 83.21 256.11 83.11 256.1C82.5 256.06 81.85 256.02 81.13 255.99C80.74 255.98 80.33 255.97 79.91 255.97H79.89L78.88 256.05H78.87L76.6 256.21L74.01 256.41L73.63 256.44L70.6 256.66L69.03 256.78L67.48 256.89C67.21 256.89 66.95 256.89 66.69 256.88C66.69 256.88 66.68 256.87 66.68 256.88C65.55 256.86 64.54 256.79 63.64 256.62C62.81 256.48 62.08 256.26 61.46 255.93C60.82 255.62 60.29 255.18 59.86 254.62C59.45 254.07 59.15 253.38 58.96 252.55C58.96 252.54 58.96 252.54 58.96 252.54C58.82 251.87 58.74 251.09 58.74 250.21L58.59 249.94L57.7 248.35L57.57 248.13L57.5 247.99L56.57 246.34L56.11 245.51L55.53 244.48L54.53 242.69L54 241.75V238.07C54.88 237.49 55.79 236.98 56.73 236.52C57.87 235.94 59.05 235.45 60.28 235.05C61.62 234.61 63.02 234.26 64.45 234.03C65.9 233.79 67.39 233.67 68.92 233.67C75.72 233.67 81.96 236.1 86.77 240.14C86.99 240.31 87.2 240.5 87.41 240.68C88.25 241.43 89.05 242.24 89.78 243.09C89.86 243.18 89.94 243.26 90 243.35Z" fill="#8E24AA"/>
<path d="M90 246.71V253.94C89.76 253.8 89.43 253.63 89.02 253.45C88.8 253.34 88.55 253.23 88.29 253.13C87.91 252.96 87.5 252.8 87.04 252.64C86.94 252.6 86.84 252.57 86.73 252.54C86.55 252.47 86.36 252.41 86.17 252.35C85.58 252.17 84.93 252 84.25 251.85C83.99 251.8 83.72 251.75 83.45 251.71C82.58 251.56 81.65 251.47 80.68 251.46C80.6 251.45 80.51 251.45 80.43 251.45L77.86 251.47L74.36 251.49H74.35L66.86 251.55C64.48 251.55 63.02 252.12 62.14 252.35C62.14 252.35 62.13 252.35 62.13 252.36C61.2 252.6 60.91 252.45 60.83 250.82C60.81 250.37 60.8 249.79 60.8 249.08L60.24 248.65L59.26 247.91L58.66 247.45L58.54 247.36L56.88 246.1L56.63 245.91L56.11 245.51L55.15 244.79L54 243.91V240.51C54.1 240.43 54.19 240.36 54.29 240.3C55.74 239.3 57.29 238.45 58.93 237.76C60.39 237.14 61.93 236.65 63.51 236.3C63.94 236.21 64.38 236.12 64.83 236.06C66.16 235.83 67.53 235.72 68.92 235.72C74.93 235.72 80.45 237.81 84.83 241.27C85.49 241.79 86.13 242.34 86.73 242.93C87.55 243.71 88.32 244.54 89.03 245.42C89.17 245.6 89.31 245.78 89.45 245.97C89.64 246.21 89.82 246.46 90 246.71Z" fill="#C2185B"/>
<path d="M90 250.72V254C90 254.65 89.94 255.29 89.82 255.91C89.64 256.83 89.33 257.71 88.91 258.53C88.69 258.58 88.44 258.58 88.16 258.54C87.53 258.43 86.79 258.1 85.99 257.67C85.95 257.66 85.91 257.64 85.88 257.62C85.63 257.49 85.37 257.35 85.11 257.19C84.58 256.9 84.02 256.58 83.46 256.28C83.34 256.22 83.22 256.16 83.11 256.1C82.47 255.77 81.81 255.47 81.15 255.24C81.15 255.24 81.15 255.24 81.14 255.24C81 255.19 80.85 255.14 80.7 255.1C80.13 254.94 79.55 254.84 78.99 254.84L77.89 254.52L73.02 253.11C73.02 253.11 73.02 253.11 73.01 253.11L70.02 252.24H70.01L68.71 251.86C64.95 251.86 62.64 253.46 61.52 252.85C61.08 252.62 60.82 252.04 60.73 250.9C60.7 250.58 60.69 250.22 60.69 249.8L59.52 249.23L59.47 249.21H59.46L58.62 248.79L57.7 248.35L57.63 248.32L57.46 248.23L55.5 247.28L54 246.55V243.12C54.17 242.97 54.35 242.83 54.53 242.69C54.72 242.54 54.91 242.4 55.1 242.25C55.11 242.25 55.11 242.25 55.11 242.25C56.29 241.4 57.54 240.65 58.87 240.03C60.42 239.29 62.07 238.72 63.78 238.35C64.03 238.29 64.29 238.23 64.55 238.19C65.97 237.92 67.43 237.78 68.92 237.78C74.19 237.78 79.03 239.49 82.93 242.37C84.06 243.21 85.11 244.14 86.07 245.15C86.86 245.98 87.59 246.88 88.25 247.82C88.3 247.89 88.35 247.96 88.4 248.02C88.77 248.56 89.11 249.11 89.43 249.68C89.64 250.02 89.82 250.37 90 250.72Z" fill="#D81B60"/>
<path d="M89.82 255.91C89.64 256.83 89.33 257.71 88.91 258.53C88.72 258.9 88.51 259.25 88.28 259.59C88.14 259.8 87.99 260 87.84 260.19C87.48 260.05 86.95 259.85 86.3 259.63C86.3 259.63 86.3 259.63 86.3 259.62C85.81 259.45 85.25 259.27 84.65 259.1C84.48 259.05 84.31 259 84.13 258.95C83.42 258.76 82.68 258.59 81.96 258.49C81.36 258.39 80.77 258.33 80.22 258.33L79.76 258.2H79.75L77.33 257.5L75.84 257.07L74.18 256.59H74.17L73.63 256.44L67.1 254.56L65.22 254.02L63.82 253.69L61.54 253.15L61.26 253.08C61.26 253.08 61.26 253.08 61.25 253.08L58.96 252.55C58.96 252.54 58.96 252.54 58.96 252.54L58.55 252.45L58.34 252.4L56.67 252.01L56.48 251.96L55.06 250.79L54 249.9V245.82C54.37 245.46 54.75 245.12 55.15 244.79C55.27 244.68 55.4 244.58 55.53 244.48C55.65 244.38 55.78 244.28 55.91 244.18C56.82 243.49 57.78 242.87 58.8 242.34C60.1 241.64 61.48 241.08 62.93 240.68C63.21 240.59 63.49 240.51 63.78 240.45C65.42 240.04 67.14 239.83 68.92 239.83C73.39 239.83 77.55 241.18 80.99 243.49C82.7 244.64 84.24 246.02 85.54 247.59C86.2 248.38 86.8 249.21 87.33 250.09C87.38 250.16 87.42 250.22 87.46 250.29C87.78 250.82 88.08 251.37 88.35 251.93C88.6 252.43 88.82 252.93 89.02 253.45C89.34 254.25 89.6 255.07 89.82 255.91Z" fill="#F50057"/>
<path d="M88.28 259.59C88.14 259.8 87.99 260 87.84 260.19C87.4 260.74 86.92 261.24 86.38 261.68C85.91 262.07 85.41 262.42 84.88 262.72C84.68 262.67 84.48 262.61 84.27 262.53C83.61 262.3 82.92 261.92 82.28 261.52C81.32 260.91 80.49 260.25 80.12 259.95C79.98 259.83 79.91 259.77 79.91 259.77L78.21 259.62L78 259.6L75.8 259.41L73.52 259.21L70.15 258.91L64.81 258.44L64.79 258.43L62.91 257.52L61.01 256.6L59.48 255.86L59.15 255.7L58.74 255.5L57.32 254.81L55.43 253.9L54.84 253.61L54 253.35V248.88C54.47 248.32 54.97 247.79 55.5 247.28C55.84 246.96 56.2 246.64 56.57 246.34C56.63 246.29 56.69 246.24 56.75 246.2C56.79 246.15 56.84 246.12 56.88 246.1C57.47 245.62 58.09 245.19 58.73 244.8C59.47 244.33 60.25 243.91 61.06 243.56C61.93 243.17 62.84 242.84 63.78 242.59C65.41 242.13 67.14 241.89 68.92 241.89C73 241.89 76.77 243.13 79.88 245.26C81.87 246.62 83.59 248.34 84.95 250.33C85.4 250.97 85.8 251.65 86.17 252.35C86.3 252.61 86.43 252.87 86.54 253.13C86.66 253.38 86.77 253.63 86.88 253.88C87.09 254.4 87.28 254.92 87.45 255.46C87.77 256.46 88.01 257.48 88.16 258.54C88.21 258.89 88.25 259.24 88.28 259.59Z" fill="#FF1744"/>
<path d="M86.39 261.42C86.39 261.5 86.39 261.59 86.38 261.68C85.91 262.07 85.41 262.42 84.88 262.72C84.66 262.84 84.44 262.96 84.21 263.06C83.98 263.17 83.75 263.27 83.51 263.36C83.17 263.18 82.71 262.96 82.22 262.75C81.53 262.44 80.78 262.16 80.2 262.07C80.06 262.04 79.93 262.03 79.81 262.03L78.17 261.82H78.15L76.11 261.55L74.05 261.28L73.09 261.16L65.53 260.18C65.04 260.18 64.52 260.15 63.98 260.08C63.32 260.02 62.63 259.92 61.94 259.78C61.26 259.66 60.57 259.5 59.91 259.33C59.22 259.17 58.54 258.98 57.91 258.8C57.18 258.58 56.5 258.37 55.93 258.18C55.46 258.03 55.06 257.89 54.75 257.78C54.57 257.35 54.42 256.9 54.31 256.44C54.1 255.66 54 254.84 54 254V252.33C54.32 251.8 54.67 251.28 55.06 250.79C55.77 249.85 56.58 248.99 57.46 248.23C57.49 248.19 57.53 248.16 57.56 248.14L57.57 248.13C57.88 247.85 58.2 247.6 58.54 247.36C58.58 247.32 58.62 247.29 58.66 247.26C58.82 247.14 58.99 247.02 59.17 246.91C60.6 245.94 62.18 245.18 63.87 244.67C65.47 244.19 67.16 243.94 68.92 243.94C72.41 243.94 75.67 244.97 78.39 246.73C80.4 248.02 82.13 249.72 83.45 251.71C83.61 251.94 83.76 252.17 83.91 252.41C84.6 253.58 85.17 254.84 85.59 256.16C85.64 256.31 85.68 256.46 85.72 256.62C85.8 256.89 85.87 257.17 85.93 257.45C85.95 257.52 85.97 257.59 85.99 257.67C86.13 258.3 86.23 258.96 86.3 259.62C86.3 259.63 86.3 259.63 86.3 259.63C86.36 260.22 86.39 260.82 86.39 261.42Z" fill="#FF5722"/>
<path d="M84.3301 261.42C84.3301 261.77 84.3101 262.15 84.2701 262.53C84.2501 262.71 84.2301 262.89 84.2101 263.06C83.9801 263.17 83.7501 263.27 83.5101 263.36C83.0601 263.53 82.6001 263.67 82.1301 263.77C81.8101 263.84 81.4801 263.9 81.1501 263.93H81.1401C80.8301 263.74 80.4701 263.51 80.1001 263.25C79.4301 262.78 78.7301 262.25 78.1701 261.82C78.1601 261.81 78.1601 261.81 78.1501 261.8C77.5601 261.35 77.1401 261.01 77.1401 261.01L76.0801 261.05L74.0401 261.12L73.0901 261.16L69.2701 261.3L66.0401 261.42C65.8301 261.43 65.5801 261.43 65.2701 261.42H65.2601C64.8401 261.41 64.3401 261.38 63.7901 261.33C63.1501 261.28 62.4501 261.22 61.7401 261.15C61.0501 261.07 60.3501 260.99 59.6801 260.91C58.9401 260.83 58.2401 260.74 57.6401 260.66C57.1701 260.6 56.7601 260.55 56.4301 260.51C56.1501 260.19 55.9001 259.86 55.6601 259.5C55.3001 258.96 54.9901 258.39 54.7501 257.78C54.5701 257.35 54.4201 256.9 54.3101 256.44C54.6001 255.55 54.9801 254.71 55.4301 253.9C55.7901 253.24 56.2101 252.61 56.6701 252.01C57.1201 251.42 57.6101 250.87 58.1401 250.37V250.36C58.2901 250.21 58.4401 250.07 58.5901 249.94C58.8701 249.68 59.1601 249.44 59.4601 249.21H59.4701C59.4801 249.19 59.4901 249.19 59.5001 249.18C59.7401 248.99 59.9901 248.82 60.2401 248.65C61.7201 247.64 63.3901 246.89 65.1901 246.45C66.3801 246.16 67.6301 246 68.9201 246C71.4601 246 73.8601 246.61 75.9701 247.71H75.9801C77.7901 248.64 79.3901 249.92 80.6801 251.46C81.3901 252.28 82.0001 253.18 82.5001 254.13C82.8501 254.77 83.1501 255.44 83.4001 256.12C83.4201 256.18 83.4401 256.23 83.4601 256.28C83.6301 256.78 83.7801 257.3 83.9101 257.82C84.0001 258.19 84.0701 258.57 84.1301 258.95C84.1501 259.07 84.1701 259.18 84.1801 259.3C84.2801 259.99 84.3301 260.7 84.3301 261.42Z" fill="#FF6F00"/>
<path d="M82.28 261.42V261.52C82.28 261.86 82.25 262.29 82.22 262.75C82.19 263.09 82.16 263.44 82.13 263.77C81.81 263.84 81.48 263.9 81.15 263.93H81.14C80.76 263.98 80.39 264 80 264H78.25L77.87 263.89L75.9 263.29L73.9 262.69L69.27 261.3L67.27 260.7C67.27 260.7 66.44 261.03 65.27 261.42H65.26C64.81 261.57 64.32 261.73 63.8 261.89C63.15 262.08 62.46 262.27 61.78 262.42C61.08 262.58 60.39 262.7 59.77 262.75C59.58 262.77 59.39 262.78 59.22 262.78C58.66 262.47 58.12 262.1 57.63 261.69C57.2 261.33 56.8 260.94 56.43 260.51C56.15 260.19 55.9 259.86 55.66 259.5C55.73 259.05 55.81 258.61 55.93 258.18C56.23 256.99 56.7 255.85 57.32 254.81C57.66 254.22 58.04 253.65 58.48 253.12C58.49 253.09 58.52 253.06 58.55 253.04C58.54 253.03 58.55 253.03 58.55 253.03C58.68 252.86 58.82 252.7 58.96 252.55C58.96 252.54 58.96 252.54 58.96 252.54C59.37 252.1 59.79 251.68 60.25 251.29C60.41 251.16 60.56 251.03 60.73 250.9C60.76 250.87 60.79 250.85 60.83 250.82C63.08 249.1 65.89 248.06 68.92 248.06C72.36 248.06 75.49 249.35 77.86 251.47C79 252.5 79.97 253.73 80.7 255.1C80.76 255.2 80.82 255.31 80.87 255.42C80.96 255.6 81.05 255.79 81.13 255.99C81.46 256.71 81.72 257.47 81.9 258.25C81.92 258.33 81.94 258.41 81.96 258.49C82.04 258.86 82.11 259.24 82.16 259.62C82.24 260.21 82.28 260.81 82.28 261.42Z" fill="#FF9800"/>
<path d="M80.22 261.42C80.22 261.62 80.21 261.84 80.2 262.07C80.18 262.44 80.15 262.84 80.1 263.25C80.08 263.5 80.04 263.75 80 264H74.52L73.46 263.83L69.32 263.17L68.73 263.08L67.38 262.86C66.79 262.86 65.51 263.12 64.16 263.37C63.45 263.5 62.73 263.64 62.08 263.73C62 263.74 61.92 263.75 61.85 263.76H61.84C61.14 263.61 60.46 263.38 59.82 263.08C59.62 262.99 59.42 262.89 59.22 262.78C58.66 262.47 58.12 262.1 57.63 261.69C57.62 261.57 57.61 261.47 57.61 261.42C57.61 261.16 57.62 260.91 57.64 260.66C57.68 260.02 57.77 259.4 57.91 258.8C58.13 257.89 58.45 257.01 58.88 256.2C58.96 256.03 59.05 255.86 59.15 255.7C59.19 255.62 59.24 255.55 59.28 255.47C59.46 255.18 59.66 254.9 59.86 254.62C60.28 254.07 60.75 253.55 61.25 253.08C61.26 253.08 61.26 253.08 61.26 253.08C61.3 253.04 61.34 253 61.38 252.97C61.43 252.93 61.47 252.88 61.52 252.85C61.72 252.67 61.92 252.51 62.13 252.36C62.13 252.35 62.14 252.35 62.14 252.35C64.03 250.94 66.37 250.11 68.92 250.11C70.9 250.11 72.74 250.61 74.35 251.49H74.36C75.74 252.25 76.94 253.28 77.89 254.52C78.26 255 78.59 255.51 78.87 256.05H78.88C78.93 256.15 78.98 256.25 79.03 256.35C79.33 256.94 79.57 257.56 79.75 258.2H79.76C79.77 258.25 79.79 258.3 79.8 258.35C79.92 258.78 80.02 259.22 80.09 259.67C80.1 259.76 80.11 259.86 80.12 259.95C80.19 260.43 80.22 260.92 80.22 261.42Z" fill="#FFC107"/>
<path d="M78.17 261.31C78.17 261.47 78.17 261.64 78.15 261.8V261.81C78.15 261.82 78.15 261.82 78.15 261.82C78.13 262.54 78.03 263.25 77.87 263.89C77.87 263.93 77.86 263.96 77.84 264H73.17L69.32 263.17L68.81 263.06L68.73 263.08L64.46 263.96L64.27 264H64C63.36 264 62.73 263.94 62.12 263.82C62.03 263.8 61.94 263.78 61.85 263.76H61.84C61.14 263.61 60.46 263.38 59.82 263.08C59.8 262.97 59.78 262.86 59.77 262.75C59.7 262.32 59.67 261.87 59.67 261.42C59.67 261.25 59.67 261.08 59.68 260.91C59.71 260.37 59.79 259.84 59.91 259.33C59.99 258.95 60.1 258.58 60.23 258.23C60.34 257.92 60.47 257.62 60.61 257.33C60.73 257.08 60.87 256.84 61.01 256.6C61.15 256.37 61.3 256.15 61.46 255.93C61.86 255.38 62.33 254.87 62.85 254.42C63.15 254.16 63.48 253.91 63.82 253.69C65.28 252.73 67.03 252.17 68.92 252.17C69.29 252.17 69.65 252.19 70 252.24H70.02C71.09 252.36 72.09 252.66 73.01 253.11C73.02 253.11 73.02 253.11 73.02 253.11C74.47 253.82 75.7 254.89 76.6 256.21C76.75 256.43 76.9 256.67 77.03 256.91C77.14 257.1 77.24 257.3 77.33 257.5C77.47 257.81 77.6 258.14 77.71 258.47H77.72C77.83 258.84 77.93 259.21 78 259.6V259.61C78.11 260.16 78.17 260.73 78.17 261.31Z" fill="#FFD54F"/>
<path d="M76.11 261.52V261.55C76.11 262.14 76.04 262.72 75.9 263.29C75.85 263.53 75.78 263.77 75.69 264H71.21L68.92 263.37L66.63 264H64C63.36 264 62.73 263.94 62.12 263.82C62.1 263.79 62.09 263.76 62.08 263.73C61.94 263.3 61.83 262.87 61.78 262.42C61.74 262.13 61.72 261.83 61.72 261.52C61.72 261.4 61.72 261.27 61.74 261.15C61.75 260.68 61.82 260.22 61.94 259.78C62 259.48 62.09 259.19 62.21 258.91C62.25 258.77 62.31 258.64 62.38 258.51C62.53 258.17 62.71 257.84 62.91 257.52C63.13 257.2 63.37 256.9 63.64 256.62C63.96 256.26 64.32 255.93 64.73 255.66C65.43 255.15 66.23 254.77 67.1 254.56C67.68 254.4 68.29 254.32 68.92 254.32C70.92 254.32 72.71 255.12 74.01 256.41C74.06 256.46 74.12 256.52 74.17 256.59H74.18C74.32 256.74 74.45 256.89 74.58 257.06C74.95 257.53 75.26 258.04 75.5 258.6C75.62 258.86 75.72 259.13 75.8 259.41C75.81 259.45 75.82 259.48 75.83 259.52C75.97 260.01 76.06 260.52 76.08 261.05C76.1 261.2 76.11 261.36 76.11 261.52Z" fill="#FFE082"/>
<path d="M74.06 261.52C74.06 261.93 74.01 262.32 73.9 262.69C73.8 263.09 73.65 263.47 73.46 263.83C73.43 263.89 73.36 264 73.36 264H64.48C64.47 263.99 64.46 263.97 64.46 263.96C64.34 263.77 64.24 263.58 64.16 263.37C63.96 262.91 63.84 262.41 63.8 261.89C63.78 261.77 63.78 261.64 63.78 261.52C63.78 261.46 63.78 261.39 63.79 261.33C63.8 260.89 63.86 260.47 63.98 260.08C64.08 259.72 64.21 259.39 64.38 259.07C64.38 259.07 64.39 259.06 64.39 259.05C64.51 258.84 64.64 258.63 64.79 258.43C65.28 257.77 65.93 257.23 66.68 256.88C66.69 256.88 66.69 256.88 66.69 256.88C66.93 256.76 67.18 256.66 67.44 256.59C67.44 256.59 67.44 256.59 67.45 256.59C67.91 256.45 68.41 256.38 68.92 256.38C69.51 256.38 70.08 256.47 70.6 256.66C70.79 256.71 70.97 256.79 71.15 256.88C71.15 256.88 71.15 256.88 71.16 256.88C72.02 257.29 72.75 257.93 73.25 258.73C73.35 258.88 73.44 259.04 73.52 259.21C73.56 259.28 73.6 259.36 73.63 259.43C73.86 259.95 74 260.52 74.04 261.12C74.05 261.17 74.05 261.22 74.05 261.28C74.06 261.36 74.06 261.44 74.06 261.52Z" fill="#FFECB3"/>
<path d="M78 233H66C62.1 233 59 236.1 59 240V252C59 255.9 62.1 259 66 259H78C81.9 259 85 255.9 85 252V240C85 236.1 81.9 233 78 233Z" stroke="white" stroke-width="2" stroke-miterlimit="10" stroke-linecap="round" stroke-linejoin="round"/>
<path d="M79 239C79.5523 239 80 238.552 80 238C80 237.448 79.5523 237 79 237C78.4477 237 78 237.448 78 238C78 238.552 78.4477 239 79 239Z" fill="white"/>
<path d="M72 252C75.3137 252 78 249.314 78 246C78 242.686 75.3137 240 72 240C68.6863 240 66 242.686 66 246C66 249.314 68.6863 252 72 252Z" stroke="white" stroke-width="2" stroke-miterlimit="10" stroke-linecap="round" stroke-linejoin="round"/>
<path d="M285.129 330.75L273.871 324.25L260.871 346.25L272.129 352.75L285.129 330.75Z" fill="#FFC107"/>
<path d="M286.871 352.75C288.666 355.859 292.718 356.894 295.75 355.129C298.853 353.323 299.924 349.359 298.129 346.25L285.129 324.25C283.334 321.141 279.294 320.106 276.25 321.871C273.144 323.672 272.076 327.641 273.871 330.75L286.871 352.75Z" fill="#1E88E5"/>
<path d="M266.5 356C270.09 356 273 353.09 273 349.5C273 345.91 270.09 343 266.5 343C262.91 343 260 345.91 260 349.5C260 353.09 262.91 356 266.5 356Z" fill="#43A047"/>
<path d="M356 450H322C320.895 450 320 450.895 320 452V460C320 461.105 320.895 462 322 462H356C357.105 462 358 461.105 358 460V452C358 450.895 357.105 450 356 450ZM356 464H322C320.895 464 320 464.895 320 466V474C320 475.105 320.895 476 322 476H356C357.105 476 358 475.105 358 474V466C358 464.895 357.105 464 356 464ZM356 478H322C320.895 478 320 478.895 320 480V488C320 489.105 320.895 490 322 490H356C357.105 490 358 489.105 358 488V480C358 478.895 357.105 478 356 478Z" fill="#D1C4E9"/>
<path d="M339 454C334.757 454 330.687 455.686 327.686 458.686C324.686 461.687 323 465.757 323 470C323 474.243 324.686 478.313 327.686 481.314C330.687 484.314 334.757 486 339 486C343.243 486 347.313 484.314 350.314 481.314C353.314 478.313 355 474.243 355 470C355 465.757 353.314 461.687 350.314 458.686C347.313 455.686 343.243 454 339 454Z" fill="#D1C4E9"/>
<path d="M333.004 472.389C333.004 471.984 332.9 471.677 332.693 471.47C332.485 471.262 332.109 471.047 331.562 470.824C330.564 470.446 329.846 470.003 329.409 469.494C328.971 468.986 328.753 468.386 328.753 467.693C328.753 466.854 329.05 466.181 329.645 465.673C330.24 465.164 330.995 464.91 331.911 464.91C332.522 464.91 333.066 465.039 333.545 465.296C334.024 465.554 334.392 465.917 334.649 466.387C334.906 466.857 335.035 467.39 335.035 467.987H333.032C333.032 467.522 332.933 467.168 332.735 466.924C332.537 466.681 332.251 466.559 331.877 466.559C331.526 466.559 331.252 466.663 331.057 466.87C330.861 467.078 330.763 467.357 330.763 467.708C330.763 467.981 330.872 468.229 331.091 468.45C331.31 468.671 331.697 468.899 332.253 469.137C333.224 469.488 333.929 469.918 334.369 470.429C334.809 470.94 335.029 471.589 335.029 472.377C335.029 473.243 334.753 473.92 334.202 474.407C333.651 474.894 332.901 475.138 331.953 475.138C331.31 475.138 330.725 475.006 330.196 474.742C329.667 474.478 329.254 474.099 328.955 473.607C328.656 473.115 328.507 472.534 328.507 471.864H330.524C330.524 472.438 330.636 472.855 330.859 473.115C331.082 473.375 331.447 473.505 331.953 473.505C332.653 473.503 333.004 473.132 333.004 472.389ZM343.36 470.796C343.36 472.442 342.916 473.638 342.027 474.385L343.401 475.615L342.136 476.777L340.304 475.102L339.778 475.136C338.653 475.136 337.772 474.754 337.136 473.99C336.5 473.227 336.18 472.171 336.176 470.822V469.263C336.176 467.896 336.493 466.828 337.126 466.06C337.759 465.292 338.639 464.909 339.765 464.909C340.864 464.909 341.731 465.278 342.369 466.016C343.007 466.754 343.338 467.791 343.36 469.126V470.796ZM341.344 469.251C341.344 468.344 341.214 467.674 340.954 467.241C340.694 466.808 340.298 466.592 339.765 466.592C339.232 466.592 338.838 466.803 338.582 467.224C338.327 467.646 338.195 468.287 338.186 469.149V470.796C338.186 471.707 338.317 472.38 338.579 472.813C338.841 473.246 339.241 473.462 339.779 473.462C340.303 473.462 340.694 473.247 340.952 472.816C341.209 472.386 341.341 471.728 341.345 470.844V469.251H341.344ZM346.819 473.332H350.346V475H344.81V465.047H346.82V473.332H346.819Z" fill="#512DA8"/>
</svg>
